<svg xmlns="http://www.w3.org/2000/svg" xmlns:xlink="http://www.w3.org/1999/xlink" width="38" height="38" viewBox="0 0 38 38">
  <defs>
    <style>
      .cls-1 {
        clip-path: url(#clip-Instagram);
      }

      .cls-2 {
        fill: #e10a0a;
      }
    </style>
    <clipPath id="clip-Instagram">
      <rect width="38" height="38"/>
    </clipPath>
  </defs>
  <g id="Instagram" class="cls-1">
    <g id="instagram_icon" data-name="instagram icon" transform="translate(0 0)">
      <path id="Path_294" data-name="Path 294" class="cls-2" d="M745.013,665.588c0-2.864,0-3.223-.053-4.348a7.669,7.669,0,0,0-.491-2.56,5.41,5.41,0,0,0-3.093-3.086,7.754,7.754,0,0,0-2.563-.491c-1.132-.054-1.491-.066-4.36-.066s-3.229.012-4.357.062a7.707,7.707,0,0,0-2.563.491,5.412,5.412,0,0,0-3.092,3.086,7.687,7.687,0,0,0-.492,2.56c-.054,1.129-.067,1.488-.067,4.352s.013,3.223.063,4.348a7.713,7.713,0,0,0,.491,2.559,5.408,5.408,0,0,0,3.093,3.087,7.761,7.761,0,0,0,2.564.491c1.126.049,1.485.062,4.356.062s3.228-.013,4.355-.062a7.746,7.746,0,0,0,2.565-.491,5.4,5.4,0,0,0,3.091-3.087,7.7,7.7,0,0,0,.493-2.559c.048-1.125.06-1.484.06-4.348m8.163,0a18.728,18.728,0,1,1-18.728-18.694,18.732,18.732,0,0,1,18.728,18.694m-11.811-5.632a1.268,1.268,0,1,0-1.268,1.265,1.267,1.267,0,0,0,1.268-1.265m-1.483,5.634a5.43,5.43,0,1,0-5.429,5.419,5.424,5.424,0,0,0,5.429-5.419m3.175-4.253c.049,1.112.062,1.446.062,4.261s-.013,3.145-.062,4.257a5.8,5.8,0,0,1-.363,1.958,3.5,3.5,0,0,1-2.007,2,5.845,5.845,0,0,1-1.962.363c-1.114.049-1.447.062-4.269.062s-3.158-.013-4.268-.062a5.827,5.827,0,0,1-1.962-.363,3.249,3.249,0,0,1-1.214-.787,3.283,3.283,0,0,1-.789-1.212,5.8,5.8,0,0,1-.362-1.957c-.05-1.113-.063-1.447-.063-4.262s.013-3.153.063-4.261a5.781,5.781,0,0,1,.362-1.958,3.213,3.213,0,0,1,.793-1.212,3.306,3.306,0,0,1,1.215-.787,5.81,5.81,0,0,1,1.961-.363c1.114-.049,1.449-.062,4.268-.062s3.16.013,4.27.062a5.792,5.792,0,0,1,1.961.363,3.473,3.473,0,0,1,2,2,5.824,5.824,0,0,1,.363,1.958m-5.083,4.253a3.521,3.521,0,1,1-3.521-3.516,3.519,3.519,0,0,1,3.521,3.516" transform="translate(-715.72 -646.892)"/>
    </g>
  </g>
</svg>
