<svg xmlns="http://www.w3.org/2000/svg" xmlns:xlink="http://www.w3.org/1999/xlink" width="38" height="38" viewBox="0 0 38 38">
  <defs>
    <style>
      .cls-1 {
        clip-path: url(#clip-Snapchat);
      }

      .cls-2 {
        fill: #e10a0a;
      }
    </style>
    <clipPath id="clip-Snapchat">
      <rect width="38" height="38"/>
    </clipPath>
  </defs>
  <g id="Snapchat" class="cls-1">
    <g id="snapchat_icon" data-name="snapchat icon" transform="translate(0 0)">
      <path id="Path_292" data-name="Path 292" class="cls-2" d="M1030.1,671.622c-.136.314-.741.76-2.863,1.087-.173.026-.242.252-.344.725-.038.171-.075.341-.128.518a.285.285,0,0,1-.3.227h-.026a2.658,2.658,0,0,1-.476-.06,6.338,6.338,0,0,0-1.273-.134,5.711,5.711,0,0,0-.92.076,4.418,4.418,0,0,0-1.749.891,4.942,4.942,0,0,1-3.027,1.193c-.059,0-.115,0-.172-.005-.038,0-.075.005-.114.005a4.946,4.946,0,0,1-3.025-1.192,4.425,4.425,0,0,0-1.75-.892,5.718,5.718,0,0,0-.919-.076,6.262,6.262,0,0,0-1.274.143,2.8,2.8,0,0,1-.476.068.3.3,0,0,1-.329-.235c-.053-.18-.092-.354-.129-.523-.094-.432-.162-.7-.344-.727-2.12-.327-2.727-.773-2.862-1.09a.393.393,0,0,1-.033-.135.238.238,0,0,1,.2-.249c3.26-.535,4.722-3.861,4.783-4l.006-.012a1.247,1.247,0,0,0,.116-1.041c-.224-.526-.953-.757-1.436-.91-.119-.038-.231-.073-.319-.108-.964-.38-1.045-.771-1.006-.97a.91.91,0,0,1,.885-.575.619.619,0,0,1,.264.053,2.819,2.819,0,0,0,1.162.3.956.956,0,0,0,.694-.221c-.013-.22-.027-.45-.042-.688-.1-1.538-.217-3.45.27-4.541a5.9,5.9,0,0,1,5.476-3.525l.4,0h.053a5.909,5.909,0,0,1,5.486,3.527c.487,1.092.367,3.005.269,4.542l0,.067c-.013.214-.027.422-.038.622a.941.941,0,0,0,.633.219,2.909,2.909,0,0,0,1.1-.3.815.815,0,0,1,.34-.068,1.039,1.039,0,0,1,.391.075l.007,0a.72.72,0,0,1,.547.584c0,.225-.169.564-1.015.9-.087.034-.2.07-.318.107-.482.153-1.212.385-1.436.911a1.236,1.236,0,0,0,.116,1.041l.006.012c.061.141,1.521,3.466,4.783,4a.24.24,0,0,1,.2.249.481.481,0,0,1-.033.136m-11.217-24.73a18.694,18.694,0,1,0,18.728,18.694,18.713,18.713,0,0,0-18.728-18.694" transform="translate(-1000.156 -646.892)"/>
    </g>
  </g>
</svg>
