<svg xmlns="http://www.w3.org/2000/svg" xmlns:xlink="http://www.w3.org/1999/xlink" width="38" height="38" viewBox="0 0 38 38">
  <defs>
    <style>
      .cls-1 {
        clip-path: url(#clip-Twitter);
      }

      .cls-2 {
        fill: #e10a0a;
      }
    </style>
    <clipPath id="clip-Twitter">
      <rect width="38" height="38"/>
    </clipPath>
  </defs>
  <g id="Twitter" class="cls-1">
    <g id="twitter_icon" data-name="twitter icon" transform="translate(0 0)">
      <path id="Path_291" data-name="Path 291" class="cls-2" d="M599.72,661.73v.468a10.825,10.825,0,0,1-10.887,10.866,9.9,9.9,0,0,1-5.852-1.753h.937a7.689,7.689,0,0,0,4.8-1.635,4.026,4.026,0,0,1-3.629-2.688c.235,0,.469.117.7.117a3.236,3.236,0,0,0,1.052-.117,3.772,3.772,0,0,1-3.043-3.739,3.877,3.877,0,0,0,1.756.468,3.831,3.831,0,0,1-1.756-3.155,5.517,5.517,0,0,1,.468-1.986,10.575,10.575,0,0,0,7.96,3.972,1.984,1.984,0,0,1-.117-.818,3.894,3.894,0,0,1,3.862-3.855,4.089,4.089,0,0,1,2.809,1.168,6.314,6.314,0,0,0,2.458-.934,3.734,3.734,0,0,1-1.638,2.1,12.457,12.457,0,0,0,2.224-.584,8.949,8.949,0,0,1-2.107,2.1m-7.491-14.838a18.694,18.694,0,1,0,18.728,18.694,18.765,18.765,0,0,0-18.728-18.694" transform="translate(-573.501 -646.892)"/>
    </g>
  </g>
</svg>
