<svg xmlns="http://www.w3.org/2000/svg" xmlns:xlink="http://www.w3.org/1999/xlink" width="38" height="38" viewBox="0 0 38 38">
  <defs>
    <style>
      .cls-1 {
        clip-path: url(#clip-Youtube);
      }

      .cls-2 {
        fill: #e10a0a;
      }
    </style>
    <clipPath id="clip-Youtube">
      <rect width="38" height="38"/>
    </clipPath>
  </defs>
  <g id="Youtube" class="cls-1">
    <g id="youtube_icon" data-name="youtube icon" transform="translate(0 0)">
      <path id="Path_289" data-name="Path 289" class="cls-2" d="M814.921,666.288a22.865,22.865,0,0,1-.234,3.037,5.343,5.343,0,0,1-.7,1.869,3.446,3.446,0,0,1-1.872.818c-2.577.234-6.556.234-6.556.234s-4.916,0-6.32-.234a3.029,3.029,0,0,1-2.108-.818,3.643,3.643,0,0,1-.7-1.869,22.959,22.959,0,0,1-.233-3.037v-1.4a22.959,22.959,0,0,1,.233-3.037,5.353,5.353,0,0,1,.7-1.87A3.467,3.467,0,0,1,799,659.16c2.576-.234,6.555-.234,6.555-.234s3.979,0,6.556.234a2.283,2.283,0,0,1,1.872.818,3.649,3.649,0,0,1,.7,1.87,22.865,22.865,0,0,1,.234,3.037Zm-9.364-19.4a18.694,18.694,0,1,0,18.729,18.694,18.765,18.765,0,0,0-18.729-18.694" transform="translate(-786.829 -646.892)"/>
      <path id="Path_290" data-name="Path 290" class="cls-2" d="M803.566,668.04l5.15-2.687-5.15-2.571Z" transform="translate(-786.829 -646.892)"/>
    </g>
  </g>
</svg>
